<svg xmlns="http://www.w3.org/2000/svg" version="1.1" viewBox="0 0 754.8007576670225 651.8394923310382" width="754.8007576670225" height="651.8394923310382">
  <!-- svg-source:excalidraw -->
  
  <defs>
    <style class="style-fonts">
      @font-face {
        font-family: "Virgil";
        src: url("https://excalidraw.com/Virgil.woff2");
      }
      @font-face {
        font-family: "Cascadia";
        src: url("https://excalidraw.com/Cascadia.woff2");
      }
      @font-face {
        font-family: "Assistant";
        src: url("https://excalidraw.com/Assistant-Regular.woff2");
      }
    </style>
    
  </defs>
  <rect x="0" y="0" width="754.8007576670225" height="651.8394923310382" fill="#ffffff"/><g stroke-linecap="round"><g transform="translate(477.21078414809693 358.3930942609576) rotate(0 0.1053446708946808 25.238000363956672)"><path d="M-1.17 -0.5 C-1.39 7.97, -1.19 41.36, -0.82 49.87 M0.41 -1.81 C0.52 6.9, 1.3 42.13, 1.36 51.09" stroke="#1e1e1e" stroke-width="2" fill="none"/></g></g><mask/><g stroke-linecap="round" transform="translate(299.4033387938331 105.08516343311896) rotate(0 84.07514617905595 34.08451872123891)"><path d="M17.04 0 C53.15 -0.65, 91.92 -1.3, 151.11 0 M17.04 0 C66.47 0.94, 116.91 0.78, 151.11 0 M151.11 0 C161.99 -1.22, 167.07 4.93, 168.15 17.04 M151.11 0 C162.37 -1.4, 166.73 6.08, 168.15 17.04 M168.15 17.04 C169.27 27.94, 168.99 38.52, 168.15 51.13 M168.15 17.04 C168.46 26.1, 168.3 36.48, 168.15 51.13 M168.15 51.13 C169.26 61.52, 163.18 69.33, 151.11 68.17 M168.15 51.13 C167.39 64.11, 164.11 66.77, 151.11 68.17 M151.11 68.17 C119.12 66.3, 84.14 69.16, 17.04 68.17 M151.11 68.17 C119.71 67.72, 88.03 67.33, 17.04 68.17 M17.04 68.17 C7.01 67.43, -0.83 61.24, 0 51.13 M17.04 68.17 C5.33 69.65, 0.41 61.33, 0 51.13 M0 51.13 C-1.56 38.35, 0.21 25.74, 0 17.04 M0 51.13 C0.93 37.05, -0.88 24.57, 0 17.04 M0 17.04 C1.15 4.84, 5.53 1.85, 17.04 0 M0 17.04 C0.82 4.19, 4.69 0.14, 17.04 0" stroke="#1e1e1e" stroke-width="2" fill="none"/></g><g transform="translate(367.0585020627328 126.66968215435787) rotate(0 16.41998291015625 12.5)"><text x="16.41998291015625" y="17.52" font-family="Virgil, Segoe UI Emoji" font-size="20px" fill="#1e1e1e" text-anchor="middle" style="white-space: pre;" direction="ltr" dominant-baseline="alphabetic">App</text></g><g stroke-linecap="round" transform="translate(10 289.30855895243405) rotate(0 84.07514617905595 34.08451872123891)"><path d="M17.04 0 C52.72 0.64, 91.65 0.39, 151.11 0 M17.04 0 C56 0.86, 95.78 -0.03, 151.11 0 M151.11 0 C162.15 0.31, 169.59 5.8, 168.15 17.04 M151.11 0 C164.07 0.08, 168.26 7.51, 168.15 17.04 M168.15 17.04 C166.45 31.97, 166.43 44.32, 168.15 51.13 M168.15 17.04 C167.55 30.17, 167.56 43.55, 168.15 51.13 M168.15 51.13 C169.65 62.94, 161.2 68.38, 151.11 68.17 M168.15 51.13 C168.54 63.25, 160.81 67.89, 151.11 68.17 M151.11 68.17 C114.7 66.51, 73.99 70.06, 17.04 68.17 M151.11 68.17 C103.2 68.94, 54.44 69.06, 17.04 68.17 M17.04 68.17 C7.07 70.15, 1.05 63.72, 0 51.13 M17.04 68.17 C5.68 69.41, -1.15 63.75, 0 51.13 M0 51.13 C1.08 40.18, -0.11 30.76, 0 17.04 M0 51.13 C0.26 40.56, 0.47 27.91, 0 17.04 M0 17.04 C-0.02 6.88, 6.77 -1.9, 17.04 0 M0 17.04 C-1.44 4.77, 4.69 -1.31, 17.04 0" stroke="#1e1e1e" stroke-width="2" fill="none"/></g><g transform="translate(63.70517395005203 298.3930776736729) rotate(0 30.369972229003906 25)"><text x="30.369972229003906" y="17.52" font-family="Virgil, Segoe UI Emoji" font-size="20px" fill="#1e1e1e" text-anchor="middle" style="white-space: pre;" direction="ltr" dominant-baseline="alphabetic">Video</text><text x="30.369972229003906" y="42.519999999999996" font-family="Virgil, Segoe UI Emoji" font-size="20px" fill="#1e1e1e" text-anchor="middle" style="white-space: pre;" direction="ltr" dominant-baseline="alphabetic">Player</text></g><g stroke-linecap="round" transform="translate(205.41790710088475 289.3085591040565) rotate(0 84.07514617905595 34.08451872123891)"><path d="M17.04 0 C58.44 1.13, 103.58 1.95, 151.11 0 M17.04 0 C66.15 -0.41, 114.74 -1.04, 151.11 0 M151.11 0 C160.62 1.4, 167.85 6.94, 168.15 17.04 M151.11 0 C160.42 -1.08, 167.02 3.5, 168.15 17.04 M168.15 17.04 C167.5 28.71, 169.73 38.38, 168.15 51.13 M168.15 17.04 C167.27 29.43, 167.83 42.06, 168.15 51.13 M168.15 51.13 C169.46 61.4, 162.74 67.33, 151.11 68.17 M168.15 51.13 C170.11 63.19, 163.28 67.73, 151.11 68.17 M151.11 68.17 C106.11 68.74, 61.94 68.34, 17.04 68.17 M151.11 68.17 C121.52 69.59, 92.14 68.14, 17.04 68.17 M17.04 68.17 C6.64 67.09, 0.19 60.52, 0 51.13 M17.04 68.17 C6.25 69.85, -0.15 61.9, 0 51.13 M0 51.13 C0.77 39.42, 0.31 31.88, 0 17.04 M0 51.13 C-0.41 42.66, 0.98 35.1, 0 17.04 M0 17.04 C-1.83 6.39, 4.07 -0.39, 17.04 0 M0 17.04 C-0.26 5.02, 6.02 1.41, 17.04 0" stroke="#1e1e1e" stroke-width="2" fill="none"/></g><g transform="translate(266.0130728111907 310.8930778252954) rotate(0 23.47998046875 12.5)"><text x="23.47998046875" y="17.52" font-family="Virgil, Segoe UI Emoji" font-size="20px" fill="#1e1e1e" text-anchor="middle" style="white-space: pre;" direction="ltr" dominant-baseline="alphabetic">Menu</text></g><g stroke-linecap="round" transform="translate(391.7466094436575 288.01010124800933) rotate(0 84.07514617905593 34.08451872123891)"><path d="M17.04 0 C60 1.51, 101.22 0.64, 151.11 0 M17.04 0 C50.61 1.53, 82.18 0.72, 151.11 0 M151.11 0 C161.11 1.44, 169.34 6.25, 168.15 17.04 M151.11 0 C163.62 1.19, 169.81 6.49, 168.15 17.04 M168.15 17.04 C169.23 24.17, 167.78 35.58, 168.15 51.13 M168.15 17.04 C168.82 30.43, 168.93 43.34, 168.15 51.13 M168.15 51.13 C167.63 61.44, 160.76 67.17, 151.11 68.17 M168.15 51.13 C166.03 61.43, 160.9 69.39, 151.11 68.17 M151.11 68.17 C117.31 70.15, 87.38 71.26, 17.04 68.17 M151.11 68.17 C105.13 68.61, 60.48 69.53, 17.04 68.17 M17.04 68.17 C3.82 67.88, 1.37 62.74, 0 51.13 M17.04 68.17 C5.31 69.75, 1.91 60.28, 0 51.13 M0 51.13 C0.02 44.67, -0.73 35.38, 0 17.04 M0 51.13 C0.38 44.05, -0.68 36.41, 0 17.04 M0 17.04 C-1.04 3.69, 5.03 0.76, 17.04 0 M0 17.04 C0.78 4.35, 7.37 1.75, 17.04 0" stroke="#1e1e1e" stroke-width="2" fill="none"/></g><g transform="translate(428.7118084181236 297.09461996924824) rotate(0 47.109947204589844 25)"><text x="47.109947204589844" y="17.52" font-family="Virgil, Segoe UI Emoji" font-size="20px" fill="#1e1e1e" text-anchor="middle" style="white-space: pre;" direction="ltr" dominant-baseline="alphabetic">Refine</text><text x="47.109947204589844" y="42.519999999999996" font-family="Virgil, Segoe UI Emoji" font-size="20px" fill="#1e1e1e" text-anchor="middle" style="white-space: pre;" direction="ltr" dominant-baseline="alphabetic">Questions</text></g><g stroke-linecap="round" transform="translate(576.6504653089106 286.63664588409745) rotate(0 84.07514617905593 34.08451872123891)"><path d="M17.04 0 C61.15 2.2, 110.96 2.66, 151.11 0 M17.04 0 C55.52 -1.02, 95.15 -1.32, 151.11 0 M151.11 0 C161.02 0.29, 167.27 4.4, 168.15 17.04 M151.11 0 C164.18 -1.24, 167.77 6.21, 168.15 17.04 M168.15 17.04 C169.92 29.91, 167.2 40.92, 168.15 51.13 M168.15 17.04 C167.15 29.47, 167.54 39.98, 168.15 51.13 M168.15 51.13 C166.95 61.32, 161.76 68.75, 151.11 68.17 M168.15 51.13 C166.73 61.19, 161.9 67.19, 151.11 68.17 M151.11 68.17 C112.55 68.92, 72.75 67.82, 17.04 68.17 M151.11 68.17 C102.82 68.21, 55.92 66.84, 17.04 68.17 M17.04 68.17 C6.93 68.33, -0.21 63.17, 0 51.13 M17.04 68.17 C3.46 66.99, -0.51 61.91, 0 51.13 M0 51.13 C-0.89 44.23, -0.94 36.41, 0 17.04 M0 51.13 C0.24 41.23, -0.87 31.58, 0 17.04 M0 17.04 C-0.6 5.06, 7.48 -0.89, 17.04 0 M0 17.04 C2.22 6.45, 7.18 0.77, 17.04 0" stroke="#1e1e1e" stroke-width="2" fill="none"/></g><g transform="translate(613.6156642833766 295.72116460533636) rotate(0 47.109947204589844 25)"><text x="47.109947204589844" y="17.52" font-family="Virgil, Segoe UI Emoji" font-size="20px" fill="#1e1e1e" text-anchor="middle" style="white-space: pre;" direction="ltr" dominant-baseline="alphabetic">Questions</text><text x="47.109947204589844" y="42.519999999999996" font-family="Virgil, Segoe UI Emoji" font-size="20px" fill="#1e1e1e" text-anchor="middle" style="white-space: pre;" direction="ltr" dominant-baseline="alphabetic">List</text></g><g stroke-linecap="round" transform="translate(576.5992645409013 410.43330605771735) rotate(0 84.07514617905593 34.08451872123891)"><path d="M17.04 0 C55.34 -0.37, 91.92 0.48, 151.11 0 M17.04 0 C58.64 -1.26, 98.29 0.16, 151.11 0 M151.11 0 C161.84 1.2, 166.19 4.37, 168.15 17.04 M151.11 0 C160.84 -0.78, 169.78 3.59, 168.15 17.04 M168.15 17.04 C169.24 24.64, 168.51 34.01, 168.15 51.13 M168.15 17.04 C168.28 26.81, 168.54 38.3, 168.15 51.13 M168.15 51.13 C166.57 63.07, 164.04 69.4, 151.11 68.17 M168.15 51.13 C165.95 63.4, 161.33 68.03, 151.11 68.17 M151.11 68.17 C118.92 70.6, 90.63 68.57, 17.04 68.17 M151.11 68.17 C108.36 67.91, 66.22 68.32, 17.04 68.17 M17.04 68.17 C5.93 66.88, 1.95 62.96, 0 51.13 M17.04 68.17 C3.6 67.31, -0.47 60.56, 0 51.13 M0 51.13 C-1.48 41.82, 0.63 35.45, 0 17.04 M0 51.13 C-0.03 37.76, 1.03 27.14, 0 17.04 M0 17.04 C-1.48 5.04, 5.56 -0.21, 17.04 0 M0 17.04 C0.38 3.48, 4.4 1.44, 17.04 0" stroke="#1e1e1e" stroke-width="2" fill="none"/></g><g transform="translate(618.9944561911486 432.01782477895625) rotate(0 41.679954528808594 12.5)"><text x="41.679954528808594" y="17.52" font-family="Virgil, Segoe UI Emoji" font-size="20px" fill="#1e1e1e" text-anchor="middle" style="white-space: pre;" direction="ltr" dominant-baseline="alphabetic">Question</text></g><g stroke-linecap="round" transform="translate(576.1674160104769 495.07479063667296) rotate(0 84.07514617905593 34.08451872123891)"><path d="M17.04 0 C46.62 -1.48, 78.72 1.02, 151.11 0 M17.04 0 C60.92 0.26, 103.09 0.72, 151.11 0 M151.11 0 C164.47 -1.27, 169.19 5, 168.15 17.04 M151.11 0 C164.3 0.74, 169.37 7.25, 168.15 17.04 M168.15 17.04 C168.45 29.28, 167.66 40.46, 168.15 51.13 M168.15 17.04 C168.75 27.22, 168.36 38.33, 168.15 51.13 M168.15 51.13 C169.49 63.1, 161.89 68.47, 151.11 68.17 M168.15 51.13 C166.61 63.1, 164.47 69.13, 151.11 68.17 M151.11 68.17 C123.57 70.25, 94.27 69.88, 17.04 68.17 M151.11 68.17 C105.29 67.02, 61.15 68.29, 17.04 68.17 M17.04 68.17 C7.57 66.75, -0.72 63.65, 0 51.13 M17.04 68.17 C5.75 67.65, 1.26 61.66, 0 51.13 M0 51.13 C0.03 37.44, 1.12 27.11, 0 17.04 M0 51.13 C-0.66 39.91, -0.63 30.85, 0 17.04 M0 17.04 C1.85 4.2, 5.2 -0.22, 17.04 0 M0 17.04 C-1.1 5.61, 6.05 -0.36, 17.04 0" stroke="#1e1e1e" stroke-width="2" fill="none"/></g><g transform="translate(618.5626076607243 516.6593093579119) rotate(0 41.679954528808594 12.5)"><text x="41.679954528808594" y="17.52" font-family="Virgil, Segoe UI Emoji" font-size="20px" fill="#1e1e1e" text-anchor="middle" style="white-space: pre;" direction="ltr" dominant-baseline="alphabetic">Question</text></g><g stroke-linecap="round" transform="translate(576.167416010477 573.6704548885605) rotate(0 84.07514617905593 34.08451872123891)"><path d="M17.04 0 C60.3 -1.3, 108.11 -1.23, 151.11 0 M17.04 0 C67.38 0.27, 118.23 0.1, 151.11 0 M151.11 0 C163.84 1.91, 167.83 6.74, 168.15 17.04 M151.11 0 C160.43 1.26, 168.02 5.45, 168.15 17.04 M168.15 17.04 C169.91 28.91, 168.35 39.87, 168.15 51.13 M168.15 17.04 C167.54 27.69, 167.1 37.77, 168.15 51.13 M168.15 51.13 C169.58 61.98, 164.13 68.82, 151.11 68.17 M168.15 51.13 C167.29 62.35, 160.9 67.71, 151.11 68.17 M151.11 68.17 C111.46 66.83, 69.92 66.77, 17.04 68.17 M151.11 68.17 C104.54 66.27, 56.95 67.8, 17.04 68.17 M17.04 68.17 C7.32 68.14, -1.78 62.9, 0 51.13 M17.04 68.17 C4.12 69.08, 2.01 64.01, 0 51.13 M0 51.13 C-1.01 38.11, 1.67 26.53, 0 17.04 M0 51.13 C-0.2 39.71, 0.55 30.49, 0 17.04 M0 17.04 C-0.73 3.75, 7.26 0.76, 17.04 0 M0 17.04 C1.37 3.82, 5.95 -2.27, 17.04 0" stroke="#1e1e1e" stroke-width="2" fill="none"/></g><g transform="translate(618.5626076607243 595.2549736097993) rotate(0 41.679954528808594 12.5)"><text x="41.679954528808594" y="17.52" font-family="Virgil, Segoe UI Emoji" font-size="20px" fill="#1e1e1e" text-anchor="middle" style="white-space: pre;" direction="ltr" dominant-baseline="alphabetic">Question</text></g><g stroke-linecap="round"><g transform="translate(662.476973497555 355.80568332657526) rotate(0 -0.018759634351511068 26.575788915910035)"><path d="M0.55 0.03 C0.76 8.9, 1.03 43.6, 0.81 52.55 M-0.61 -1.01 C-0.46 8.08, -0.09 44.98, 0.3 53.78" stroke="#1e1e1e" stroke-width="2" fill="none"/></g></g><mask/><g stroke-linecap="round" transform="translate(394.36096611070076 410.43330605771735) rotate(0 84.07514617905596 34.08451872123891)"><path d="M17.04 0 C49.31 -0.77, 81.9 -0.2, 151.11 0 M17.04 0 C43.91 -1.12, 71.57 -0.53, 151.11 0 M151.11 0 C164.38 -1.88, 170.08 7.42, 168.15 17.04 M151.11 0 C161.06 0.84, 167.72 4.63, 168.15 17.04 M168.15 17.04 C166.38 29.08, 167.64 38.29, 168.15 51.13 M168.15 17.04 C168.68 28.37, 168.39 40.12, 168.15 51.13 M168.15 51.13 C169.18 60.63, 162.05 66.37, 151.11 68.17 M168.15 51.13 C166.15 63.98, 163.22 67.99, 151.11 68.17 M151.11 68.17 C120.22 68.67, 93.14 70.82, 17.04 68.17 M151.11 68.17 C116.81 68.45, 80.78 69.46, 17.04 68.17 M17.04 68.17 C6.43 68.04, 0.78 63.3, 0 51.13 M17.04 68.17 C3.64 69.81, -2.1 61.84, 0 51.13 M0 51.13 C1.33 39.27, -0.94 28.62, 0 17.04 M0 51.13 C0.1 37.13, 0.39 25.94, 0 17.04 M0 17.04 C-0.68 3.75, 4.98 -0.83, 17.04 0 M0 17.04 C0.33 4.74, 3.43 2.28, 17.04 0" stroke="#1e1e1e" stroke-width="2" fill="none"/></g><g transform="translate(447.02614677462 432.01782477895625) rotate(0 31.40996551513672 12.5)"><text x="31.40996551513672" y="17.52" font-family="Virgil, Segoe UI Emoji" font-size="20px" fill="#1e1e1e" text-anchor="middle" style="white-space: pre;" direction="ltr" dominant-baseline="alphabetic">Filters</text></g><g stroke-linecap="round"><g transform="translate(384.0795737766206 174.25420087559678) rotate(0 0.3626624565555261 33.36494600310782)"><path d="M1.04 -0.15 C1.15 10.91, 1.23 55.65, 1.1 66.88 M0.13 -1.27 C0.07 9.96, 0.5 57.42, 0.35 68.49" stroke="#1e1e1e" stroke-width="2" fill="none"/></g></g><mask/><g stroke-linecap="round"><g transform="translate(384.1937697202708 240.9840928818124) rotate(0 44.114082740283514 23.013004183098474)"><path d="M0.6 0.03 C15.53 7.55, 74.69 37.62, 89.18 45.38 M-0.54 -1 C14.35 6.65, 74.24 38.98, 88.74 46.57" stroke="#1e1e1e" stroke-width="2" fill="none"/></g></g><mask/><g stroke-linecap="round"><g transform="translate(386.52405939251366 242.9713843012969) rotate(0 129.77350398101834 21.332630791400277)"><path d="M-0.88 -0.88 C42.02 6.44, 215.28 36.03, 258.5 43.25 M0.86 1.27 C44.02 8.3, 217.35 34.37, 260.66 41.43" stroke="#1e1e1e" stroke-width="2" fill="none"/></g></g><mask/><g stroke-linecap="round"><g transform="translate(384.99162275390415 244.40083268476042) rotate(0 -47.750576155648886 21.95386320964802)"><path d="M0.36 -0.42 C-15.29 6.9, -78.49 36.5, -94.58 44.02 M-0.9 -1.68 C-16.57 5.84, -79.59 38.2, -95.05 45.62" stroke="#1e1e1e" stroke-width="2" fill="none"/></g></g><mask/><g stroke-linecap="round"><g transform="translate(386.425238783145 243.2788151174288) rotate(0 -146.61665246535102 22.514871917502603)"><path d="M0.08 -0.78 C-48.56 6.82, -243.81 37.74, -292.57 45.25 M-1.33 1.43 C-50.02 8.66, -244.59 35.95, -293.17 43.24" stroke="#1e1e1e" stroke-width="2" fill="none"/></g></g><mask/><g transform="translate(275.1942450163697 10) rotate(0 117.49861907958984 17.708124361482987)"><text x="0" y="24.81970710505457" font-family="Virgil, Segoe UI Emoji" font-size="28.332998978372796px" fill="#2f9e44" text-anchor="start" style="white-space: pre;" direction="ltr" dominant-baseline="alphabetic">Components Tree</text></g><g stroke-linecap="round"><g transform="translate(277.5935601358909 40.4299078030229) rotate(0 115.47451571263801 1.9840982081209404)"><path d="M1.15 0.54 C39.84 1.37, 193.02 3.55, 231.25 4.08 M0.29 -0.22 C38.93 0.9, 192.26 4.83, 230.45 5.68" stroke="#2f9e44" stroke-width="2" fill="none"/></g></g><mask/></svg>